<?xml version="1.0" encoding="iso-8859-1"?>
<!-- Generator: Adobe Illustrator 18.0.0, SVG Export Plug-In . SVG Version: 6.00 Build 0)  -->
<!DOCTYPE svg PUBLIC "-//W3C//DTD SVG 1.1//EN" "http://www.w3.org/Graphics/SVG/1.1/DTD/svg11.dtd">
<svg version="1.1" id="Capa_1" xmlns="http://www.w3.org/2000/svg" xmlns:xlink="http://www.w3.org/1999/xlink" x="0px" y="0px"
	 viewBox="0 0 296 296" style="enable-background:new 0 0 296 296;" xml:space="preserve">
<path d="M184.844,296c22.271-27,30.956-114.543,15.241-152.238c-14.931-35.813-4.054-57.772,0.946-65.164V0h-17v38.583
	c-19,0-38.008,15.409-38.008,34.417c0-19.008-18.992-34.417-37.992-34.417V0h-17v78.602c4.929,7.393,15.848,29.352,0.918,65.16
	C76.23,181.469,84.902,269,107.162,296H184.844z"   fill="#000"/>
<g>
	<path d="M74.758,125.322l8.606-20.303c-0.983-11.683-5.899-17.779-6.485-18.488c-1.388-1.481-2.181-3.277-2.181-5.311V20.339
		L42.26,114.31c-1.252,3.61,0.817,7.737,4.419,9.013l18.079,6.386c0.78,0.275,1.629,0.416,2.482,0.416
		C70.457,130.124,73.56,128.149,74.758,125.322z"   fill="#000"/>
</g>
<g>
	<path d="M253.681,114.826L216.698,9.807v71.414c0,2.036-0.455,3.835-1.845,5.316c-0.509,0.613-4.074,5.293-5.678,14.156
		l11.747,24.873c1.355,2.88,4.705,4.892,8.117,4.892c0.898,0,1.773-0.143,2.576-0.424l17.945-6.288
		c1.75-0.613,3.078-1.884,3.893-3.58C254.267,118.471,254.295,116.574,253.681,114.826z"   fill="#000"/>
</g>
<g>
</g>
<g>
</g>
<g>
</g>
<g>
</g>
<g>
</g>
<g>
</g>
<g>
</g>
<g>
</g>
<g>
</g>
<g>
</g>
<g>
</g>
<g>
</g>
<g>
</g>
<g>
</g>
<g>
</g>
</svg>
