<?xml version="1.0" encoding="iso-8859-1"?>
<!-- Generator: Adobe Illustrator 18.0.0, SVG Export Plug-In . SVG Version: 6.00 Build 0)  -->
<!DOCTYPE svg PUBLIC "-//W3C//DTD SVG 1.1//EN" "http://www.w3.org/Graphics/SVG/1.1/DTD/svg11.dtd">
<svg version="1.1" id="Capa_1" xmlns="http://www.w3.org/2000/svg" xmlns:xlink="http://www.w3.org/1999/xlink" x="0px" y="0px"
	 viewBox="0 0 282.803 282.803" style="enable-background:new 0 0 282.803 282.803;" xml:space="preserve">
<g>
	<path d="M50.073,80.352l18.095,9.832c1.969,1.07,4.428,0.488,5.709-1.351l14.048-20.167c9.193,22.379,10.106,47.387,2.208,70.395
		l-21.749,65.963h146.035l-21.749-65.963c-7.898-23.007-6.985-48.015,2.208-70.395l14.048,20.167
		c1.281,1.839,3.74,2.421,5.709,1.351l18.095-9.832c2.015-1.095,2.85-3.553,1.921-5.649l-26.99-60.821
		c-2.629-5.916-7.574-10.507-13.686-12.696c-1.619-0.579-3.281-0.971-4.958-1.187h-20.234c0,12.019-12.259,21.762-27.381,21.762
		S114.021,12.019,114.02,0H93.786c-1.677,0.216-3.339,0.608-4.958,1.187c-6.112,2.188-11.057,6.779-13.686,12.696l-26.99,60.821
		C47.222,76.799,48.058,79.257,50.073,80.352z"   fill="#000"/>
	<polygon points="224.311,235.025 219.365,220.025 63.438,220.025 58.493,235.025 	"   fill="#000"/>
	<path d="M232.554,260.025H50.249l-3.715,11.267c-0.881,2.671-0.426,5.603,1.222,7.882c1.648,2.279,4.291,3.63,7.104,3.63
		c35.588,0,137.497,0,173.082,0c2.813,0,5.454-1.35,7.103-3.629c1.648-2.279,2.104-5.211,1.223-7.883L232.554,260.025z"   fill="#000"/>
</g>
<g>
</g>
<g>
</g>
<g>
</g>
<g>
</g>
<g>
</g>
<g>
</g>
<g>
</g>
<g>
</g>
<g>
</g>
<g>
</g>
<g>
</g>
<g>
</g>
<g>
</g>
<g>
</g>
<g>
</g>
</svg>
