<?xml version="1.0" encoding="iso-8859-1"?>
<!-- Generator: Adobe Illustrator 18.0.0, SVG Export Plug-In . SVG Version: 6.00 Build 0)  -->
<!DOCTYPE svg PUBLIC "-//W3C//DTD SVG 1.1//EN" "http://www.w3.org/Graphics/SVG/1.1/DTD/svg11.dtd">
<svg version="1.1" id="Capa_1" xmlns="http://www.w3.org/2000/svg" xmlns:xlink="http://www.w3.org/1999/xlink" x="0px" y="0px"
	 viewBox="0 0 297.627 297.627" style="enable-background:new 0 0 297.627 297.627;" xml:space="preserve">
<g>
	<path d="M70.177,73.775l10.414-10.109c2.958-2.87,7.658-2.871,10.617,0l10.418,10.109l10.416-10.109
		c2.958-2.87,7.658-2.871,10.615,0l10.419,10.109l10.416-10.109c2.958-2.871,7.658-2.871,10.615,0l10.419,10.111l10.415-10.111
		c2.957-2.87,7.661-2.871,10.617,0l10.421,10.111l10.422-10.111c2.956-2.87,7.655-2.87,10.617,0l10.421,10.113l9.159-8.888
		l-9.374-21.054c-5.333-11.981-20.246-19.78-33.145-17.453l-2.542,0.475c-1.459-6.108-2.921-12.219-4.38-18.328
		c-1.469-5.789-7.391-9.338-13.239-8.374c-16.514,2.742-33.374,2.742-49.891,0c-5.847-0.964-11.771,2.587-13.239,8.374
		c-1.465,6.131-2.93,12.259-4.394,18.387l-2.847-0.533c-12.899-2.327-27.813,5.522-33.146,17.505l-9.358,21.016L70.177,73.775z"   fill="#000"/>
	<path d="M211.073,155.832c-3.712-12.577-4.252-29.825-1.197-38.326c3.053-8.497,8.941-5.272,13.084,7.17l18.29,54.914l39.774-14.9
		l-37.817-84.953l-10.458,10.148c-2.96,2.87-7.659,2.87-10.617,0l-10.424-10.111l-10.422,10.111
		c-1.478,1.437-3.394,2.154-5.307,2.154c-1.915,0-3.828-0.718-5.31-2.154l-10.418-10.111l-10.417,10.111
		c-2.956,2.87-7.658,2.872-10.614,0L148.8,79.773l-10.416,10.111c-2.957,2.87-7.659,2.872-10.617,0L117.35,79.775l-10.413,10.109
		c-2.957,2.87-7.659,2.872-10.617,0L85.902,79.775L75.486,89.885c-2.955,2.87-7.66,2.872-10.619-0.002L54.432,79.752l-37.829,84.961
		L56.377,179.6l18.29-54.918c4.143-12.443,10.031-15.669,13.082-7.174c3.058,8.501,2.517,25.749-1.195,38.326L50.767,275.935
		c-3.712,12.58,3.973,21.692,17.08,21.692h161.933c13.107,0,20.791-9.112,17.08-21.694L211.073,155.832z"   fill="#000"/>
</g>
<g>
</g>
<g>
</g>
<g>
</g>
<g>
</g>
<g>
</g>
<g>
</g>
<g>
</g>
<g>
</g>
<g>
</g>
<g>
</g>
<g>
</g>
<g>
</g>
<g>
</g>
<g>
</g>
<g>
</g>
</svg>
