<?xml version="1.0" encoding="iso-8859-1"?>
<!-- Generator: Adobe Illustrator 18.0.0, SVG Export Plug-In . SVG Version: 6.00 Build 0)  -->
<!DOCTYPE svg PUBLIC "-//W3C//DTD SVG 1.1//EN" "http://www.w3.org/Graphics/SVG/1.1/DTD/svg11.dtd">
<svg version="1.1" id="Capa_1" xmlns="http://www.w3.org/2000/svg" xmlns:xlink="http://www.w3.org/1999/xlink" x="0px" y="0px"
	 viewBox="0 0 273.414 273.414" style="enable-background:new 0 0 273.414 273.414;" xml:space="preserve">
<g>
	<path d="M88.033,54.724c-0.041,9.849-1.027,19.573-2.917,29.108h28.758v-6.25c0-4.143,3.357-7.5,7.5-7.5h31
		c4.143,0,7.5,3.357,7.5,7.5v6.25h28.456c-1.902-9.576-2.905-19.33-2.948-29.107c7.98-4.853,13.279-13.361,13.279-23.05
		C198.661,16.586,192.247,0,185.082,0c-12.692,0-33.154,17.571-40.769,32.318c-0.979,1.895-2.939,3.091-5.072,3.091h-5.056
		c-2.135,0-4.092-1.194-5.072-3.091C121.497,17.571,101.03,0,88.333,0c-7.171,0-13.58,16.586-13.58,31.674
		C74.753,41.363,80.052,49.87,88.033,54.724z"   fill="#000"/>
	<path d="M199.307,117.894c-2.825-6.19-5.235-12.562-7.218-19.062h-32.215v6.25c0,4.143-3.357,7.5-7.5,7.5h-31
		c-4.143,0-7.5-3.357-7.5-7.5v-6.25H81.351c-1.981,6.471-4.396,12.833-7.238,19.063c-16.165,35.431-18.447,90.91-19.034,145.334
		c-0.029,2.691,1.02,5.281,2.912,7.194c1.892,1.913,4.472,2.991,7.163,2.991h143.109c2.691,0,5.271-1.077,7.163-2.99
		c1.893-1.913,2.941-4.504,2.911-7.195C217.75,208.804,215.476,153.325,199.307,117.894z"   fill="#000"/>
	<rect x="128.874" y="85.082" width="16" height="12.5"   fill="#000"/>
</g>
<g>
</g>
<g>
</g>
<g>
</g>
<g>
</g>
<g>
</g>
<g>
</g>
<g>
</g>
<g>
</g>
<g>
</g>
<g>
</g>
<g>
</g>
<g>
</g>
<g>
</g>
<g>
</g>
<g>
</g>
</svg>
