<?xml version="1.0" encoding="iso-8859-1"?>
<!-- Generator: Adobe Illustrator 18.0.0, SVG Export Plug-In . SVG Version: 6.00 Build 0)  -->
<!DOCTYPE svg PUBLIC "-//W3C//DTD SVG 1.1//EN" "http://www.w3.org/Graphics/SVG/1.1/DTD/svg11.dtd">
<svg version="1.1" id="Capa_1" xmlns="http://www.w3.org/2000/svg" xmlns:xlink="http://www.w3.org/1999/xlink" x="0px" y="0px"
	 viewBox="0 0 297 297" style="enable-background:new 0 0 297 297;" xml:space="preserve">
<g>
	<path d="M100.691,70.195l101.401-49.306L97.816,5.99c-3.456-0.499-6.755,1.495-7.944,4.763L78.276,42.643
		C89.207,48.137,97.498,58.139,100.691,70.195z"/>
	<path d="M58.968,109.707c15.697,0,28.467-12.772,28.467-28.47c0-15.699-12.77-28.471-28.467-28.471S30.501,65.538,30.501,81.237
		C30.501,96.935,43.271,109.707,58.968,109.707z"/>
	<path d="M28.466,196.952h240.301c3.463,0,5.479-2.713,4.479-6.029L225.553,32.731c-1-3.316-4.366-4.79-7.48-3.275L101.864,85.962
		c-2.361,21.584-20.694,38.438-42.896,38.438l-3.792-0.064c-3.408-0.614-7.165,1.547-8.349,4.802l-22.506,61.897
		C23.138,194.289,25.003,196.952,28.466,196.952z"/>
	<path d="M276.011,211.645H20.989C9.416,211.645,0,221.06,0,232.634v37.463c0,11.574,9.416,20.989,20.989,20.989h255.021
		c11.574,0,20.989-9.416,20.989-20.989v-37.463C297,221.06,287.585,211.645,276.011,211.645z"/>
</g>
<g>
</g>
<g>
</g>
<g>
</g>
<g>
</g>
<g>
</g>
<g>
</g>
<g>
</g>
<g>
</g>
<g>
</g>
<g>
</g>
<g>
</g>
<g>
</g>
<g>
</g>
<g>
</g>
<g>
</g>
</svg>
