<?xml version="1.0" encoding="iso-8859-1"?>
<!-- Generator: Adobe Illustrator 18.1.1, SVG Export Plug-In . SVG Version: 6.00 Build 0)  -->
<svg version="1.1" id="Capa_1" xmlns="http://www.w3.org/2000/svg" xmlns:xlink="http://www.w3.org/1999/xlink" x="0px" y="0px"
	 viewBox="0 0 278.081 278.081" style="enable-background:new 0 0 278.081 278.081;" xml:space="preserve">
<g>
	<g>
		<g>
			<rect x="134.132" y="170.668" style="fill:#030104;" width="19.764" height="14.746"/>
			<path style="fill:#030104;" d="M154.938,186.456H133.09v-16.828h21.847V186.456z M135.173,184.374h17.681V171.71h-17.681V184.374
				z"/>
		</g>
		<g>
			<path style="fill:#030104;" d="M195.862,174.029c-3.581-19.51-7.888-80.442-7.888-80.442l-2.805-6.772l1.111-4.028l-1.168-6.656
				c0,0,43.031-27.322,47.704-35.206c4.67-7.882-96.223,12.843-96.223,12.843l-5.955,2.86c0,0-5.779,0.409-9.635,8.348
				c-0.717,1.479-2.12,7.395-4.037,15.494l14.316,20.793l-18.192-4.717c-2.58,10.354-5.613,21.652-8.903,31.312
				c-6.238,18.318-13.337,31.162-17.598,37.261c-44.055-5.135-84.287-8.824-85.502,4.122
				c-1.728,18.403,47.043,60.873,134.392,68.654c87.346,7.783,139.807-29.696,141.533-48.103
				C278.231,176.798,239.353,175.499,195.862,174.029z M160.637,190.379h-33.745v-25.175h33.745V190.379z"/>
			<path style="fill:#030104;" d="M158.69,239.986c-0.005,0,0.002,0-0.003,0c-7.62,0-15.459-0.354-23.3-1.054
				C68.305,232.957,24.757,207.114,7.848,186.8c-5.559-6.679-8.256-12.784-7.798-17.656c0.627-6.676,9.617-9.786,28.293-9.786
				c16.26,0,38.274,2.389,57.744,4.654c2.614-3.838,10.064-15.787,17.114-36.489c2.749-8.072,5.653-18.287,8.878-31.228l0.254-1.02
				l16.507,4.28L115.846,80.68l0.106-0.45c2.134-9.014,3.377-14.188,4.113-15.708c3.694-7.604,9.109-8.748,10.279-8.909l6.039-2.865
				c2.913-0.599,71.565-14.653,91.428-14.653c3.636,0,5.37,0.44,5.985,1.52c0.184,0.323,0.418,0.992-0.086,1.841
				c-4.498,7.59-42.055,31.734-47.452,35.18l1.088,6.202l-1.078,3.909l2.732,6.598l0.012,0.169c0.042,0.6,4.226,59.431,7.727,79.502
				c38.446,1.301,71.553,2.472,79.477,11.475c1.403,1.593,2.02,3.41,1.833,5.399C276.455,206.892,232.874,239.986,158.69,239.986z
				 M28.343,161.44c-16.906,0-25.728,2.657-26.219,7.898c-0.399,4.246,2.203,9.975,7.325,16.128
				c24.938,29.961,81.314,47.399,126.123,51.392c7.779,0.693,15.557,1.045,23.115,1.045c40.953,0,69.163-9.896,85.617-18.196
				c20.924-10.557,30.983-22.68,31.671-30.012c0.133-1.414-0.3-2.667-1.322-3.828c-7.376-8.381-42.005-9.552-78.666-10.792
				l-0.997-0.033l-0.151-0.824c-3.458-18.838-7.636-76.809-7.891-80.388l-2.878-6.947l1.145-4.146l-1.248-7.111l0.588-0.374
				c14.661-9.309,43.185-28.399,47.248-34.669c-0.398-0.157-1.433-0.405-3.99-0.405c-19.26,0-87.498,13.892-90.884,14.584
				l-6.018,2.89l-0.198,0.014c-0.207,0.018-5.255,0.524-8.771,7.764c-0.659,1.359-2.135,7.567-3.854,14.829l15.637,22.712
				l-19.877-5.154c-3.138,12.517-5.978,22.462-8.673,30.376c-7.487,21.985-15.464,34.277-17.73,37.521l-0.356,0.51l-0.618-0.072
				C66.904,163.873,44.665,161.44,28.343,161.44z M161.678,191.422h-35.827v-27.258h35.827V191.422z M127.934,189.339h31.661
				v-23.093h-31.661V189.339z"/>
		</g>
	</g>
</g>
<g>
</g>
<g>
</g>
<g>
</g>
<g>
</g>
<g>
</g>
<g>
</g>
<g>
</g>
<g>
</g>
<g>
</g>
<g>
</g>
<g>
</g>
<g>
</g>
<g>
</g>
<g>
</g>
<g>
</g>
</svg>
