<?xml version='1.0' encoding='iso-8859-1'?>
<!DOCTYPE svg PUBLIC '-//W3C//DTD SVG 1.1//EN' 'http://www.w3.org/Graphics/SVG/1.1/DTD/svg11.dtd'>
<svg version="1.1" xmlns="http://www.w3.org/2000/svg" viewBox="0 0 512 512" xmlns:xlink="http://www.w3.org/1999/xlink" enable-background="new 0 0 512 512">
  <g>
    <rect width="64" x="224" y="272" height="64"/>
    <path d="M92.184,288H192v-32c0-8.836,7.164-16,16-16h96c8.836,0,16,7.164,16,16v32h99.816   c8.305-129.295,27.39-232.794,27.637-234.109c1.75-9.351-0.75-19.008-6.836-26.328C434.539,20.242,425.516,16,416,16H96   c-9.516,0-18.539,4.242-24.617,11.563c-6.086,7.32-8.586,16.977-6.836,26.328C64.794,55.206,83.879,158.705,92.184,288z"/>
    <path d="M448,368h-31.672c0.331-16.219,0.952-32.209,1.706-48H320v32c0,8.836-7.164,16-16,16h-96c-8.836,0-16-7.164-16-16v-32   H93.966c0.754,15.791,1.375,31.781,1.706,48H64c-35.289,0-64,28.711-64,64s28.711,64,64,64h384c35.289,0,64-28.711,64-64   S483.289,368,448,368z"/>
  </g>
</svg>
