<?xml version="1.0" encoding="iso-8859-1"?>
<!-- Generator: Adobe Illustrator 19.0.0, SVG Export Plug-In . SVG Version: 6.00 Build 0)  -->
<svg version="1.1" id="Layer_1" xmlns="http://www.w3.org/2000/svg" xmlns:xlink="http://www.w3.org/1999/xlink" x="0px" y="0px"
	 viewBox="0 0 512.002 512.002" style="enable-background:new 0 0 512.002 512.002;" xml:space="preserve">
<g>
	<g>
		<polygon points="404.293,193.404 193.404,404.293 246.263,453.281 453.282,246.263 		"/>
	</g>
</g>
<g>
	<g>
		<path d="M233.288,8.885c-5.171-5.581-12.21-8.733-19.817-8.878c-7.609-0.167-14.759,2.737-20.139,8.118L8.127,193.331
			c-5.381,5.38-8.264,12.532-8.118,20.14c0.144,7.606,3.296,14.645,8.877,19.816l167.039,154.806l212.17-212.17L233.288,8.885z"/>
	</g>
</g>
<g>
	<g>
		<path d="M511.753,225.141c-0.76-9.835-9.356-17.179-19.183-16.432c-9.835,0.76-17.192,9.35-16.432,19.184
			c0.206,2.662,0.177,5.313-0.062,7.93c-0.994,10.867-5.739,21.124-13.58,28.966L264.789,462.496
			c-7.841,7.841-18.1,12.588-28.963,13.581c-2.617,0.239-5.269,0.267-7.931,0.061c-9.826-0.753-18.424,6.597-19.183,16.432
			c-0.761,9.835,6.597,18.424,16.432,19.184c2.141,0.166,4.276,0.248,6.404,0.248c12.106,0,23.952-2.66,34.763-7.672
			c7.313-3.389,14.149-7.859,20.273-13.32c1.18-1.051,2.34-2.13,3.465-3.254l197.708-197.708c1.125-1.125,2.209-2.281,3.261-3.461
			c5.463-6.126,9.91-12.975,13.3-20.291C510.207,253.584,512.859,239.452,511.753,225.141z"/>
	</g>
</g>
<g>
</g>
<g>
</g>
<g>
</g>
<g>
</g>
<g>
</g>
<g>
</g>
<g>
</g>
<g>
</g>
<g>
</g>
<g>
</g>
<g>
</g>
<g>
</g>
<g>
</g>
<g>
</g>
<g>
</g>
</svg>
