<?xml version="1.0" encoding="iso-8859-1"?>
<!-- Generator: Adobe Illustrator 18.0.0, SVG Export Plug-In . SVG Version: 6.00 Build 0)  -->
<!DOCTYPE svg PUBLIC "-//W3C//DTD SVG 1.1//EN" "http://www.w3.org/Graphics/SVG/1.1/DTD/svg11.dtd">
<svg version="1.1" id="Capa_1" xmlns="http://www.w3.org/2000/svg" xmlns:xlink="http://www.w3.org/1999/xlink" x="0px" y="0px"
	 viewBox="0 0 297.545 297.545" style="enable-background:new 0 0 297.545 297.545;" xml:space="preserve">
<g>
	<path d="M67.167,88.633c0.734,12.609,3.743,45.933,16.061,82.942c13.579,40.807-9.543,100.97-20.487,125.97h52.923
		c3.297,0,24.93-3.1,24.93-27.063v-24.937h-15.234c-4.163,0-7.538-3.336-7.538-7.5c0-4.164,3.375-7.5,7.538-7.5h15.234v-43h-15.234
		c-4.163,0-7.538-3.338-7.538-7.5c0-4.164,3.375-7.5,7.538-7.5h15.234v-33.672C107.593,136.271,78.446,116.188,67.167,88.633z"   fill="#000"/>
	<path d="M219.976,62.043C219.976,27.832,188.049,0,148.808,0c-39.246,0-71.175,27.832-71.175,62.043
		c0,17.039,7.925,32.494,20.728,43.719c-2.67-6.404-4.151-13.424-4.151-20.785c0-29.877,24.306-54.184,54.184-54.184
		c29.877,0,54.184,24.307,54.184,54.184c0,7.785-1.663,15.186-4.632,21.881C211.503,95.555,219.976,79.648,219.976,62.043z"   fill="#000"/>
	<path d="M229.942,88.633c-11.314,27.381-40.349,47.559-73.349,50.223v33.69h14.939c4.164,0,7.539,3.336,7.539,7.5
		c0,4.162-3.375,7.5-7.539,7.5h-14.939v43h14.939c4.164,0,7.539,3.336,7.539,7.5c0,4.164-3.375,7.5-7.539,7.5h-14.939v24.937
		c0,24.338,22.268,27.063,24.514,27.063h53.371c-9.909-25-31.112-85.153-17.528-125.97
		C229.375,134.243,230.165,100.754,229.942,88.633z"   fill="#000"/>
	<path d="M69.118,176.058c-7.075-21.262-11.22-41.065-13.647-56.874l-36.77,134.559c-1.353,4.951-0.721,9.476,1.781,12.752
		c2.488,3.26,6.666,5.051,11.764,5.051h24.551C67.033,244.545,78.353,203.806,69.118,176.058z"   fill="#000"/>
	<path d="M147.461,124.055c21.473-0.108,40.039-17.578,40.039-39.078c0-21.563-17.544-39.105-39.106-39.105
		c-21.563,0-39.106,17.543-39.106,39.105C109.287,105.85,126.851,122.98,147.461,124.055z"   fill="#000"/>
	<path d="M279.013,253.227l-32.416-138.205c-0.471-2.004-1.223-4.045-2.19-6.074c-1.181,17.108-4.504,41.026-13.184,67.11
		c-9.255,27.803,0.72,68.487,9.951,95.487h23.366c5.152,0,9.463-1.854,12.14-5.231C279.37,262.921,280.198,258.277,279.013,253.227z
		"   fill="#000"/>
</g>
<g>
</g>
<g>
</g>
<g>
</g>
<g>
</g>
<g>
</g>
<g>
</g>
<g>
</g>
<g>
</g>
<g>
</g>
<g>
</g>
<g>
</g>
<g>
</g>
<g>
</g>
<g>
</g>
<g>
</g>
</svg>
