<?xml version="1.0" encoding="iso-8859-1"?>
<!-- Generator: Adobe Illustrator 18.1.1, SVG Export Plug-In . SVG Version: 6.00 Build 0)  -->
<svg version="1.1" id="Capa_1" xmlns="http://www.w3.org/2000/svg" xmlns:xlink="http://www.w3.org/1999/xlink" x="0px" y="0px"
	 viewBox="0 0 15.334 15.334" style="enable-background:new 0 0 15.334 15.334;" xml:space="preserve">
<g>
	<path style="fill:#030104;" d="M15.181,6.882c-0.354-0.913-1.604-4.342-2.365-4.634c-0.03-0.013-0.068-0.028-0.128-0.048
		c-0.641-0.214-3.191-0.003-3.077-0.019c0.487-0.232,0.946-0.511,0.946-0.511h0.003V0.644H4.736V1.63H4.699v0.04l0.947,0.511
		C5.768,2.198,3.378,2.06,2.453,2.2C1.528,2.527-0.008,6.136,0,6.878c0.007,0.742,0.046,4.771,0.046,4.771h1.81
		c0,0-0.096-3.01-0.007-3.949c0.088-0.939,0.687-1.896,1.058-2.494v8.808c0,0,1.268,0.465,3.059,0.676l0.057-1.736V4.088L7.44,3.273
		l1.642-1.058c0.007,0.006,0.038,0,0.038,0l-2.731,2.07V14.62l3.319,0.006c0.814-0.119,1.673-0.309,2.565-0.607l0.001,0.002v-0.002
		c0.004,0,0.007-0.002,0.011-0.004V5.236V5.232c0.374,0.616,0.689,1.776,1.046,2.473s-0.007,3.949-0.007,3.949h1.811
		C15.134,11.653,15.55,7.834,15.181,6.882z M7.906,5.735c0.401,0,0.727,0.326,0.727,0.728c0,0.401-0.325,0.727-0.727,0.727
		c-0.402,0-0.728-0.326-0.728-0.727C7.179,6.061,7.504,5.735,7.906,5.735z M7.965,7.712c0.402,0,0.729,0.325,0.729,0.728
		c0,0.4-0.326,0.727-0.729,0.727c-0.4,0-0.727-0.326-0.727-0.727C7.238,8.038,7.564,7.712,7.965,7.712z M7.996,9.728
		c0.401,0,0.727,0.324,0.727,0.727s-0.325,0.727-0.727,0.727c-0.402,0-0.728-0.324-0.728-0.727S7.594,9.728,7.996,9.728z
		 M8.041,13.196c-0.402,0-0.729-0.326-0.729-0.729c0-0.4,0.326-0.727,0.729-0.727c0.4,0,0.727,0.326,0.727,0.727
		C8.768,12.87,8.441,13.196,8.041,13.196z"   fill="#000"/>
</g>
<g>
</g>
<g>
</g>
<g>
</g>
<g>
</g>
<g>
</g>
<g>
</g>
<g>
</g>
<g>
</g>
<g>
</g>
<g>
</g>
<g>
</g>
<g>
</g>
<g>
</g>
<g>
</g>
<g>
</g>
</svg>
