<?xml version="1.0" encoding="iso-8859-1"?>
<!-- Generator: Adobe Illustrator 19.0.0, SVG Export Plug-In . SVG Version: 6.00 Build 0)  -->
<svg version="1.1" id="Layer_1" xmlns="http://www.w3.org/2000/svg" xmlns:xlink="http://www.w3.org/1999/xlink" x="0px" y="0px"
	 viewBox="0 0 512.001 512.001" style="enable-background:new 0 0 512.001 512.001;" xml:space="preserve">
<g>
	<g>
		<path d="M123.734,79.987c-14.902,7.855-27.228,20.4-34.725,36.227L2.552,298.73c-6.161,13.006-0.795,28.55,12.076,34.985
			l32.536,16.269c13.068,6.534,28.957,1.237,35.491-11.83l27.85-55.699v171.947c0,14.61,11.843,26.453,26.453,26.453h99.2v-291.83
			C127.041,178.293,123.734,101.744,123.734,79.987z M159.06,406.013l-17.745-35.491l52.907-26.453l17.745,35.491L159.06,406.013z"
			   fill="#000"/>
	</g>
</g>
<g>
	<g>
		<path d="M509.448,298.729l-86.455-182.515c-7.497-15.827-19.824-28.371-34.725-36.227c0,21.757-3.307,98.306-112.427,109.038
			v291.828h99.2c14.61,0,26.453-11.843,26.453-26.453V282.454l27.85,55.699c6.534,13.068,22.423,18.364,35.491,11.83l32.536-16.269
			C510.243,327.278,515.609,311.734,509.448,298.729z M352.942,406.013l-52.907-26.453l17.745-35.491l52.907,26.453L352.942,406.013
			z"   fill="#000"/>
	</g>
</g>
<g>
	<g>
		<path d="M295.681,31.145h-79.36l-52.907,52.907c0,32.6,21.41,59.67,72.747,65.118v-30.445L194.876,77.44h122.249l-41.284,41.284
			v30.444c51.337-5.447,72.747-32.518,72.747-65.116L295.681,31.145z"   fill="#000"/>
	</g>
</g>
<g>
</g>
<g>
</g>
<g>
</g>
<g>
</g>
<g>
</g>
<g>
</g>
<g>
</g>
<g>
</g>
<g>
</g>
<g>
</g>
<g>
</g>
<g>
</g>
<g>
</g>
<g>
</g>
<g>
</g>
</svg>
