<?xml version="1.0" encoding="iso-8859-1"?>
<!-- Generator: Adobe Illustrator 19.0.0, SVG Export Plug-In . SVG Version: 6.00 Build 0)  -->
<svg version="1.1" id="Layer_1" xmlns="http://www.w3.org/2000/svg" xmlns:xlink="http://www.w3.org/1999/xlink" x="0px" y="0px"
	 viewBox="0 0 511.996 511.996" style="enable-background:new 0 0 511.996 511.996;" xml:space="preserve">
<g>
	<g>
		<path d="M329.808,317.167l-14.665,35.404c19.072,6.456,39.054,10.422,59.551,11.736v-38.211
			C359.15,324.887,344.119,321.832,329.808,317.167z"   fill="#000"/>
	</g>
</g>
<g>
	<g>
		<path d="M196.191,147.593h-38.209c1.314,20.497,5.28,40.479,11.736,59.551l35.403-14.665
			C200.455,178.168,197.399,163.136,196.191,147.593z"   fill="#000"/>
	</g>
</g>
<g>
	<g>
		<path d="M216.777,220.552l-35.428,14.675c8.921,18.051,20.247,34.984,33.81,50.407l27.09-27.089
			C232.346,246.973,223.771,234.232,216.777,220.552z"   fill="#000"/>
	</g>
</g>
<g>
	<g>
		<path d="M405.09,327.635v105.963h105.969C504.176,378.392,460.295,334.52,405.09,327.635z"   fill="#000"/>
	</g>
</g>
<g>
	<g>
		<path d="M263.742,280.037l-27.09,27.09c15.423,13.564,32.357,24.889,50.408,33.81l14.675-35.428
			C288.056,298.515,275.315,289.94,263.742,280.037z"   fill="#000"/>
	</g>
</g>
<g>
	<g>
		<path d="M157.479,52.216v15.198v49.783h38.12V1.104C173.58,7.662,157.479,28.094,157.479,52.216z"   fill="#000"/>
	</g>
</g>
<g>
	<g>
		<path d="M204.058,318.229c-49.638-49.638-76.975-115.635-76.975-185.834v-64.98H0v84.365c11.318-7.82,25.027-12.415,39.794-12.415
			c38.703,0,70.19,31.487,70.19,70.19c0,38.703-31.487,70.19-70.19,70.19c-14.767,0-28.477-4.595-39.794-12.415v166.268h374.694
			v-38.841C310.211,391.104,250.096,364.267,204.058,318.229z"   fill="#000"/>
	</g>
</g>
<g>
	<g>
		<rect x="338.183" y="463.991" width="173.813" height="46.901"   fill="#000"/>
	</g>
</g>
<g>
	<g>
		<rect y="463.991" width="307.787" height="46.901"   fill="#000"/>
	</g>
</g>
<g>
	<g>
		<path d="M39.794,169.761C17.851,169.761,0,187.611,0,209.554s17.851,39.795,39.794,39.795c21.943,0,39.794-17.851,39.794-39.794
			C79.588,187.612,61.737,169.761,39.794,169.761z"   fill="#000"/>
	</g>
</g>
<g>
</g>
<g>
</g>
<g>
</g>
<g>
</g>
<g>
</g>
<g>
</g>
<g>
</g>
<g>
</g>
<g>
</g>
<g>
</g>
<g>
</g>
<g>
</g>
<g>
</g>
<g>
</g>
<g>
</g>
</svg>
