<?xml version="1.0" encoding="iso-8859-1"?>
<!-- Generator: Adobe Illustrator 18.1.1, SVG Export Plug-In . SVG Version: 6.00 Build 0)  -->
<svg version="1.1" id="Capa_1" xmlns="http://www.w3.org/2000/svg" xmlns:xlink="http://www.w3.org/1999/xlink" x="0px" y="0px"
	 viewBox="0 0 42.949 42.949" style="enable-background:new 0 0 42.949 42.949;" xml:space="preserve">
<g>
	<path d="M41.834,32.427V29.39c0-0.199-0.427-0.361-0.946-0.361H0.951C0.431,29.029,0,29.191,0,29.39v3.037
		c0,0.199,0.431,0.361,0.951,0.361h39.937C41.407,32.788,41.834,32.626,41.834,32.427z"   fill="#000"/>
	<path d="M40.195,22.092c0,0-15.946-1.75-23.155-11.142c0,0-3.389-3.822-0.548,5.354c0,0,0.438,6.663-7.099,3.276
		c0,0-2.567-0.883-4.914-6.555c0,0-1.146-2.303-2.896-1.811C0.889,11.439,0.055,12.252,0,14.883v1.205h4.67v1.926H0v9.321h16.93
		l4.545-7.865h2.228l-4.316,7.865h2.691l3.029-4.97h2.381l-2.912,4.97h2.666l1.405-2.485h2.074l-1.374,2.485h12.487
		C41.834,27.335,45.219,23.292,40.195,22.092z"   fill="#000"/>
	<g>
	</g>
	<g>
	</g>
	<g>
	</g>
	<g>
	</g>
	<g>
	</g>
	<g>
	</g>
	<g>
	</g>
	<g>
	</g>
	<g>
	</g>
	<g>
	</g>
	<g>
	</g>
	<g>
	</g>
	<g>
	</g>
	<g>
	</g>
	<g>
	</g>
</g>
<g>
</g>
<g>
</g>
<g>
</g>
<g>
</g>
<g>
</g>
<g>
</g>
<g>
</g>
<g>
</g>
<g>
</g>
<g>
</g>
<g>
</g>
<g>
</g>
<g>
</g>
<g>
</g>
<g>
</g>
</svg>
