<?xml version="1.0" encoding="iso-8859-1"?>
<!-- Generator: Adobe Illustrator 17.1.0, SVG Export Plug-In . SVG Version: 6.00 Build 0)  -->
<!DOCTYPE svg PUBLIC "-//W3C//DTD SVG 1.1//EN" "http://www.w3.org/Graphics/SVG/1.1/DTD/svg11.dtd">
<svg version="1.1" id="Capa_1" xmlns="http://www.w3.org/2000/svg" xmlns:xlink="http://www.w3.org/1999/xlink" x="0px" y="0px"
	 viewBox="0 0 445.479 445.479" style="enable-background:new 0 0 445.479 445.479;" xml:space="preserve">
<path d="M371.635,227.454c-3.266-0.854-6.718-1.817-10.261-2.863c-0.838-0.248-1.854-0.501-3.033-0.501
	c-2.386,0-4.435,1.061-5.981,3.145l-19.47,28.416c-1.803,2.632-4.788,4.203-7.983,4.203c-1.95,0-3.835-0.586-5.452-1.693
	c-4.396-3.012-5.522-9.038-2.51-13.435l15.156-22.119c1.469-2.064,1.357-3.906,1.005-5.088c-0.61-2.045-2.322-3.354-3.602-3.854
	c-6.112-2.39-12.253-4.963-18.253-7.65c-0.579-0.26-1.246-0.396-1.929-0.396c-1.148,0-3.388,0.409-5.483,3.148l-21.804,31.815
	c-1.803,2.632-4.788,4.203-7.983,4.203c-1.95,0-3.835-0.586-5.452-1.694c-2.129-1.459-3.563-3.659-4.037-6.196
	c-0.474-2.538,0.068-5.108,1.528-7.237l19.104-27.883c1.577-2.352,1.535-4.364,1.223-5.639c-0.403-1.646-1.519-3.105-2.985-3.906
	c-5.76-3.146-11.439-6.444-16.882-9.806c-0.718-0.443-2.178-1.188-3.894-1.188c-2.079,0-3.872,1.07-5.057,3.016l-26.419,38.557
	c-1.803,2.632-4.788,4.203-7.983,4.203c-1.95,0-3.835-0.585-5.452-1.693c-2.13-1.459-3.563-3.66-4.038-6.197
	s0.068-5.107,1.527-7.237l25.099-36.631c1.96-2.456,2.172-4.709,2.002-6.174c-0.356-3.057-2.502-5.01-3.409-5.707
	c-19.485-15.005-35.829-31.402-48.573-48.734c-2.639-3.609-6.916-5.765-11.441-5.765l-0.323,0.004
	c-4.634,0.142-8.903,2.52-11.416,6.354c-25.478,38.557-40.856,61.83-83.639,61.83c-21.793,0-42.712-5.83-62.176-17.33
	c-4.293-2.532-9.903-2.564-14.213-0.104C2.739,162.105,0,166.806,0,171.891v119.148c0,7.57,5.98,13.77,13.464,14.124v12.377
	c0,7.802,6.343,14.149,14.139,14.149H135.52c7.796,0,14.139-6.348,14.139-14.149v-11.979l31.19,4.448
	c33.171,17.402,70.435,26.598,107.795,26.598h0.08l142.66-9.117c7.779-0.046,14.094-6.376,14.094-14.149
	C445.479,274.693,445.479,246.771,371.635,227.454z"   fill="#000"/>
<g>
</g>
<g>
</g>
<g>
</g>
<g>
</g>
<g>
</g>
<g>
</g>
<g>
</g>
<g>
</g>
<g>
</g>
<g>
</g>
<g>
</g>
<g>
</g>
<g>
</g>
<g>
</g>
<g>
</g>
</svg>
