<?xml version="1.0" encoding="iso-8859-1"?>
<!-- Generator: Adobe Illustrator 18.0.0, SVG Export Plug-In . SVG Version: 6.00 Build 0)  -->
<!DOCTYPE svg PUBLIC "-//W3C//DTD SVG 1.1//EN" "http://www.w3.org/Graphics/SVG/1.1/DTD/svg11.dtd">
<svg version="1.1" id="Capa_1" xmlns="http://www.w3.org/2000/svg" xmlns:xlink="http://www.w3.org/1999/xlink" x="0px" y="0px"
	 viewBox="0 0 297 297" style="enable-background:new 0 0 297 297;" xml:space="preserve">
<g>
	<polygon points="197.282,0 98.636,0 95.384,14 201.347,14 	"   fill="#000"/>
	<path d="M206.462,30H90.534c-2.36,11-5.886,41.441,7.641,95.543c7.965,31.859,6.655,44.287,5.14,58.271
		C101.448,201.029,99.14,222,115.324,297h24.844V93.185c0-4.129,3.372-7.475,7.501-7.475c4.127,0,7.499,3.346,7.499,7.475V297
		h26.643c16.183-75,13.83-95.865,11.93-113.075c-1.546-13.989-2.88-26.394,5.086-58.257C212.341,71.618,208.835,42,206.462,30z"   fill="#000"/>
</g>
<g>
</g>
<g>
</g>
<g>
</g>
<g>
</g>
<g>
</g>
<g>
</g>
<g>
</g>
<g>
</g>
<g>
</g>
<g>
</g>
<g>
</g>
<g>
</g>
<g>
</g>
<g>
</g>
<g>
</g>
</svg>
