<?xml version="1.0" encoding="iso-8859-1"?>
<!-- Generator: Adobe Illustrator 17.1.0, SVG Export Plug-In . SVG Version: 6.00 Build 0)  -->
<!DOCTYPE svg PUBLIC "-//W3C//DTD SVG 1.1//EN" "http://www.w3.org/Graphics/SVG/1.1/DTD/svg11.dtd">
<svg version="1.1" id="Capa_1" xmlns="http://www.w3.org/2000/svg" xmlns:xlink="http://www.w3.org/1999/xlink" x="0px" y="0px"
	 viewBox="0 0 460.587 460.587" style="enable-background:new 0 0 460.587 460.587;" xml:space="preserve">
<g>
	<path d="M122.293,45h214.5c4.687,0,8.5-3.813,8.5-8.5v-28c0-4.687-3.813-8.5-8.5-8.5h-214.5c-4.687,0-8.5,3.813-8.5,8.5v28
		C113.793,41.187,117.606,45,122.293,45z"   fill="#000"/>
	<path d="M336.793,58h-25.626c-2.313,0-4.413,0.917-5.91,2.58c-1.497,1.664-2.188,3.848-1.945,6.149l6.697,63.4
		c0.479,4.524,4.567,8.204,9.116,8.204h23.653c2.302,0,4.409-0.91,5.935-2.561s2.265-3.824,2.082-6.118l-5.034-63.372
		C345.398,61.716,341.374,58,336.793,58z"   fill="#000"/>
	<path d="M352.916,161.813c-0.039-4.676-3.874-8.479-8.549-8.479h-43.24c-2.032,0-3.93-1.708-4.144-3.729l-8.811-83.4
		C287.695,61.68,283.606,58,279.057,58H185.53c-4.549,0-8.639,3.68-9.117,8.204l-8.81,83.4c-0.213,2.021-2.111,3.729-4.144,3.729
		h-47.24c-4.676,0-8.511,3.804-8.548,8.48l-2.329,290.253c-0.019,2.268,0.853,4.405,2.453,6.019
		c1.601,1.613,3.731,2.502,5.999,2.502h82c4.558,0,8.63-3.69,9.077-8.226l25.423-257.829l25.423,257.83
		c0.448,4.536,4.52,8.226,9.077,8.226h82c2.268,0,4.397-0.889,5.998-2.502s2.472-3.75,2.454-6.018L352.916,161.813z"   fill="#000"/>
	<path d="M117.808,138.333h27.652c4.549,0,8.639-3.68,9.117-8.204l6.697-63.4c0.243-2.301-0.448-4.485-1.945-6.149
		S155.732,58,153.418,58h-29.625c-4.582,0-8.604,3.716-8.967,8.283l-5.035,63.372c-0.182,2.294,0.558,4.467,2.083,6.118
		C113.399,137.424,115.506,138.333,117.808,138.333z"   fill="#000"/>
</g>
<g>
</g>
<g>
</g>
<g>
</g>
<g>
</g>
<g>
</g>
<g>
</g>
<g>
</g>
<g>
</g>
<g>
</g>
<g>
</g>
<g>
</g>
<g>
</g>
<g>
</g>
<g>
</g>
<g>
</g>
</svg>
