<?xml version="1.0" encoding="iso-8859-1"?>
<!-- Generator: Adobe Illustrator 16.0.0, SVG Export Plug-In . SVG Version: 6.00 Build 0)  -->
<!DOCTYPE svg PUBLIC "-//W3C//DTD SVG 1.1//EN" "http://www.w3.org/Graphics/SVG/1.1/DTD/svg11.dtd">
<svg version="1.1" id="Capa_1" xmlns="http://www.w3.org/2000/svg" xmlns:xlink="http://www.w3.org/1999/xlink" x="0px" y="0px"
	 width="893.6px" height="893.601px" viewBox="0 0 893.6 893.601" style="enable-background:new 0 0 893.6 893.601;"
	 xml:space="preserve">
<g>
	<path d="M687.05,659.7V430.8c0-35.8,29.2-65,65-65h67.8l8.7-279.5H797.95l-8.8,206.7c-0.399,9.4-8.1,16.8-17.5,16.8
		c-0.3,0-0.5,0-0.8,0c-9.7-0.4-17.2-8.6-16.7-18.2l8.7-205.2h-299V351.8c20.3-2.3,39.5-8.6,55.3-18.3c8.2-5.1,19-2.5,24.101,5.7
		c5.1,8.2,2.5,19-5.7,24.1c-25.7,15.801-58.101,24.5-91.2,24.5c-33.5,0-66.2-8.899-92.1-25c-8.2-5.1-10.7-15.899-5.601-24.1
		c5.101-8.2,15.9-10.7,24.101-5.6c16,10,35.399,16.399,56.1,18.699V86.2h-299l8.7,205.2c0.4,9.7-7.1,17.8-16.7,18.2
		c-0.3,0-0.5,0-0.8,0c-9.3,0-17.1-7.4-17.5-16.8l-8.8-206.6h-30.6l8.7,279.5h68.8c35.8,0,65,29.2,65,65v228.9c0,35.8-29.2,65-65,65
		h-57.6l4.1,130.199c0.7,21.601,18.4,38.801,40,38.801h141.9c18.1,0,34-12.2,38.7-29.801L418.55,449c7.6-28.6,48.2-28.6,55.7,0
		l109.8,414.8c4.6,17.5,20.5,29.801,38.7,29.801H764.65c21.601,0,39.3-17.2,40-38.801l4.101-130.199H752.15
		C716.15,724.7,687.05,695.5,687.05,659.7z"   fill="#000"/>   fill="#000"/>
	<path d="M181.65,659.7V430.8c0-22.1-17.9-40-40-40h-68h-9.8c-22.1,0-40,17.9-40,40v228.9c0,22.1,17.9,40,40,40h19.5h58.4
		C163.75,699.7,181.65,681.8,181.65,659.7z"   fill="#000"/>   fill="#000"/>
	<path d="M829.85,390.8h-10.8h-67c-22.101,0-40,17.9-40,40v228.9c0,22.1,17.899,40,40,40h57.3h20.4c22.1,0,40-17.9,40-40V430.8
		C869.85,408.7,851.95,390.8,829.85,390.8z"   fill="#000"/>   fill="#000"/>
	<path d="M104.15,0c-22.1,0-40,17.9-40,40v10h764.4V40c0-22.1-17.9-40-40-40H104.15z"   fill="#000"/>   fill="#000"/>
</g>
<g>
</g>
<g>
</g>
<g>
</g>
<g>
</g>
<g>
</g>
<g>
</g>
<g>
</g>
<g>
</g>
<g>
</g>
<g>
</g>
<g>
</g>
<g>
</g>
<g>
</g>
<g>
</g>
<g>
</g>
</svg>
