<?xml version="1.0" encoding="iso-8859-1"?>
<!-- Generator: Adobe Illustrator 18.0.0, SVG Export Plug-In . SVG Version: 6.00 Build 0)  -->
<!DOCTYPE svg PUBLIC "-//W3C//DTD SVG 1.1//EN" "http://www.w3.org/Graphics/SVG/1.1/DTD/svg11.dtd">
<svg version="1.1" id="Capa_1" xmlns="http://www.w3.org/2000/svg" xmlns:xlink="http://www.w3.org/1999/xlink" x="0px" y="0px"
	 viewBox="0 0 297 297" style="enable-background:new 0 0 297 297;" xml:space="preserve">
<g>
	<polygon points="76.385,94 66.254,94 61.762,171 76.385,171 	"   fill="#000"/>
	<path d="M178.385,277.976V297h48v-19.531c8-0.067,14.846-6.144,14.31-14.366L236.05,187h-22.995c-4.435,0-8.67-4.447-8.67-8.881
		V84.785c0-4.434,4.235-6.785,8.67-6.785h15.84l-2.836-43.995c-0.538-8.262-7.754-15.146-16.035-15.146
		c8.281,0,15.053-3.86,15.053-9.431c0-5.568-6.771-9.429-15.053-9.429H85.63c-8.278,0-15.056,3.705-15.056,9.273
		c0,5.568,6.777,9.655,15.056,9.655c-8.278,0-15.445,7.12-15.928,15.386L67.188,78h17.399c4.435,0,7.798,2.352,7.798,6.785v93.334
		c0,4.434-3.363,8.881-7.798,8.881H60.828l-4.526,76.134c-0.461,7.921,5.083,13.776,13.082,14.288V297h48v-19.024
		c8,0,15.821-6.77,16.573-15.017l14.26-158.557l13.971,158.559C162.934,271.207,170.385,277.976,178.385,277.976z"   fill="#000"/>
	<polygon points="220.385,171 235,171 229.947,94 220.385,94 	"   fill="#000"/>   fill="#000"/>
</g>
<g>
</g>
<g>
</g>
<g>
</g>
<g>
</g>
<g>
</g>
<g>
</g>
<g>
</g>
<g>
</g>
<g>
</g>
<g>
</g>
<g>
</g>
<g>
</g>
<g>
</g>
<g>
</g>
<g>
</g>
</svg>
