<?xml version="1.0" encoding="iso-8859-1"?>
<!-- Generator: Adobe Illustrator 18.0.0, SVG Export Plug-In . SVG Version: 6.00 Build 0)  -->
<!DOCTYPE svg PUBLIC "-//W3C//DTD SVG 1.1//EN" "http://www.w3.org/Graphics/SVG/1.1/DTD/svg11.dtd">
<svg version="1.1" id="Capa_1" xmlns="http://www.w3.org/2000/svg" xmlns:xlink="http://www.w3.org/1999/xlink" x="0px" y="0px"
	 viewBox="0 0 301.029 301.029" style="enable-background:new 0 0 301.029 301.029;" xml:space="preserve">
<g>
	<path d="M179.402,0H96.396c-3.613,0-6.753,2.481-7.589,5.997l-4.966,20.902h95.561V0z M165.484,20.783
		c-4.05,0-7.333-3.283-7.333-7.333c0-4.05,3.283-7.333,7.333-7.333c4.05,0,7.333,3.283,7.333,7.333
		C172.817,17.5,169.534,20.783,165.484,20.783z"   fill="#000"/>
	<path d="M212.223,5.997C211.388,2.482,208.248,0,204.634,0h-10.232v26.899h22.785L212.223,5.997z"   fill="#000"/>
	<path d="M206.181,186.486c-8.284,0-15-6.716-15-15v-61.99c0-8.284,6.716-15,15-15h13.551l-2.592-52.554H83.889l-2.592,52.554
		h13.551c8.284,0,15,6.716,15,15v61.99c0,8.284-6.716,15-15,15H76.76l-5.246,106.36c-0.105,2.133,0.669,4.215,2.141,5.762
		c1.472,1.546,3.514,2.422,5.649,2.422H136.4c4.245,0,7.71-3.394,7.798-7.637l4.313-207.286c0.023-1.09,0.913-1.962,2.003-1.962
		c1.09,0,1.981,0.872,2.003,1.962l4.313,207.286c0.088,4.243,3.554,7.637,7.798,7.637h57.096c2.135,0,4.177-0.875,5.65-2.422
		c1.472-1.547,2.246-3.629,2.141-5.762l-5.246-106.36H206.181z"   fill="#000"/>
	<polygon points="94.848,121.057 68.483,151.986 68.483,171.486 94.848,171.486 	"   fill="#000"/>
	<polygon points="68.483,109.496 68.483,128.863 84.992,109.496 	"   fill="#000"/>
	<polygon points="216.918,109.496 232.546,128.374 232.546,109.496 	"   fill="#000"/>
	<polygon points="206.181,171.486 232.546,171.486 232.546,151.896 206.181,120.048 	"   fill="#000"/>
</g>
<g>
</g>
<g>
</g>
<g>
</g>
<g>
</g>
<g>
</g>
<g>
</g>
<g>
</g>
<g>
</g>
<g>
</g>
<g>
</g>
<g>
</g>
<g>
</g>
<g>
</g>
<g>
</g>
<g>
</g>
</svg>
