<?xml version="1.0" encoding="iso-8859-1"?>
<!-- Generator: Adobe Illustrator 18.1.1, SVG Export Plug-In . SVG Version: 6.00 Build 0)  -->
<svg version="1.1" id="Capa_1" xmlns="http://www.w3.org/2000/svg" xmlns:xlink="http://www.w3.org/1999/xlink" x="0px" y="0px"
	 viewBox="0 0 612.004 612.004" style="enable-background:new 0 0 612.004 612.004;" xml:space="preserve">
<g>
	<path d="M611.589,273.325c0,0-33.708-125.64-33.806-125.923c-4.939-14.43-18.367-49.552-68.221-76.346
		c-0.221-0.117-47.978-24.26-100.089-40.634l-0.381,2.836c-0.006,0.062-5.142,80.689-98.01,80.689h-10.161
		c-91.742,0-103.232-78.788-103.786-80.652l-0.867-1.126c-68.313,26.228-93.594,39.083-93.803,39.194
		c-49.878,26.8-66.099,67.95-68.239,76.192c-0.074,0.289-33.806,125.8-33.806,125.8c-1.329,4.958,0.56,10.18,4.767,13.12
		c24.942,17.45,61.861,33.572,84.853,42.799c8.87,3.561,18.189-3.986,16.503-13.397c-3.58-19.954-7.615-50.856-5.155-79.551
		c1.163-13.581,21.615-15.131,24.973-1.925c5.782,22.722,12.296,54.086,12.296,91.465l-0.031,231.112
		c0,13.588,11.016,24.604,24.604,24.604h217.37v-24.604h49.208v24.604h22.519c13.588,0,24.604-11.016,24.604-24.604l0.031-231.112
		c0-33.541,4.958-62.242,9.706-84.195c3.032-14.006,23.983-12.013,24.493,2.313c0.91,25.539-1.802,52.554-4.343,70.367
		c-1.316,9.214,7.787,16.454,16.485,13.145c22.199-8.445,58.478-23.608,83.444-41.009
		C610.968,283.554,612.924,278.289,611.589,273.325z M433.905,273.356c0,3.322-2.079,6.299-5.191,7.467l-38.419,14.406
		c-1.802,0.677-3.801,0.677-5.604,0l-38.142-14.406c-3.112-1.169-4.902-4.14-4.902-7.467v-73.474c0-4.404,3.026-5.979,7.43-5.979
		h76.826c4.404,0,8.009,1.575,8.009,5.979v73.474H433.905z"   fill="#000"/>
</g>
<g>
</g>
<g>
</g>
<g>
</g>
<g>
</g>
<g>
</g>
<g>
</g>
<g>
</g>
<g>
</g>
<g>
</g>
<g>
</g>
<g>
</g>
<g>
</g>
<g>
</g>
<g>
</g>
<g>
</g>
</svg>
